<svg width="359" height="362" viewBox="0 0 359 362" fill="none" xmlns="http://www.w3.org/2000/svg">
<rect width="359" height="362" rx="68" fill="#FA243C"/>
<path d="M183.24 287H254.875C261.538 287 267.929 284.83 272.641 280.966C277.353 277.103 280 271.863 280 266.4V142.8C280.01 139.536 279.231 136.303 277.709 133.287C276.186 130.271 273.951 127.532 271.131 125.228L226.057 88.2719C223.247 85.9597 219.906 84.1267 216.228 82.8786C212.549 81.6305 208.606 80.9921 204.625 81.0001H104.125C97.4614 81.0001 91.0708 83.1704 86.3589 87.0337C81.6471 90.8969 79 96.1366 79 101.6V188.195" stroke="white" stroke-width="18" stroke-linecap="round" stroke-linejoin="round"/>
<path d="M148 252V133L200 158.058" stroke="white" stroke-width="18" stroke-linecap="round" stroke-linejoin="round"/>
<path d="M118 295C139.539 295 157 277.987 157 257C157 236.013 139.539 219 118 219C96.4609 219 79 236.013 79 257C79 277.987 96.4609 295 118 295Z" fill="white"/>
</svg>
